<svg width="32" height="32" viewBox="0 0 32 32" fill="none" xmlns="http://www.w3.org/2000/svg">
<rect width="32" height="32" fill="#95BFB8"/>
<path d="M16.7639 8.36111H15.0833C15.0833 6.5041 13.5792 5 11.7222 5C9.86521 5 8.36111 6.5041 8.36111 8.36111H6.68056C5.75625 8.36111 5 9.11736 5 10.0417V20.125C5 21.0493 5.75625 21.8056 6.68056 21.8056H16.7639C17.6882 21.8056 18.4444 21.0493 18.4444 20.125V10.0417C18.4444 9.11736 17.6882 8.36111 16.7639 8.36111ZM11.7222 6.68056C12.6465 6.68056 13.4028 7.43681 13.4028 8.36111H10.0417C10.0417 7.43681 10.7979 6.68056 11.7222 6.68056ZM16.7639 20.125H6.68056V10.0417H8.36111V11.7222C8.36111 12.1844 8.73924 12.5625 9.20139 12.5625C9.66354 12.5625 10.0417 12.1844 10.0417 11.7222V10.0417H13.4028V11.7222C13.4028 12.1844 13.7809 12.5625 14.2431 12.5625C14.7052 12.5625 15.0833 12.1844 15.0833 11.7222V10.0417H16.7639V20.125Z" fill="#F7F8F9"/>
<path d="M24.0667 19.4833C24.0667 19.0783 23.7384 18.75 23.3334 18.75C22.9284 18.75 22.6001 19.0783 22.6001 19.4833V21.6833H20.4001C19.9951 21.6833 19.6667 22.0117 19.6667 22.4167C19.6667 22.8217 19.9951 23.15 20.4001 23.15H22.6001V25.35C22.6001 25.755 22.9284 26.0833 23.3334 26.0833C23.7384 26.0833 24.0667 25.755 24.0667 25.35V23.15H26.2667C26.6718 23.15 27.0001 22.8217 27.0001 22.4167C27.0001 22.0117 26.6718 21.6833 26.2667 21.6833H24.0667V19.4833Z" fill="#F7F8F9"/>
</svg>
