<svg width="16" height="14" viewBox="0 0 16 14" fill="none" xmlns="http://www.w3.org/2000/svg">
<path fill-rule="evenodd" clip-rule="evenodd" d="M5 2.4996C5 3.88063 3.88126 5 2.5 5C1.11955 5 0 3.88063 0 2.4996C0 1.11937 1.11955 0 2.5 0C3.88126 0 5 1.11937 5 2.4996ZM14.87 1.38801C15.4933 1.38801 16 1.87335 16 2.47044C16 3.06834 15.4933 3.55368 14.87 3.55368H9.93832C9.31416 3.55368 8.8075 3.06834 8.8075 2.47044C8.8075 1.87335 9.31416 1.38801 9.93832 1.38801H14.87ZM1.13083 10.4756H6.06247C6.68663 10.4756 7.19329 10.9609 7.19329 11.5588C7.19329 12.1559 6.68663 12.6421 6.06247 12.6421H1.13083C0.506664 12.6421 0 12.1559 0 11.5588C0 10.9609 0.506664 10.4756 1.13083 10.4756ZM13.5 14C14.8813 14 16 12.8806 16 11.5004C16 10.1194 14.8813 9 13.5 9C12.1195 9 11 10.1194 11 11.5004C11 12.8806 12.1195 14 13.5 14Z" fill="#95BFB8"/>
</svg>
