<svg width="18" height="20" viewBox="0 0 18 20" fill="none" xmlns="http://www.w3.org/2000/svg">
<path d="M9 0.25C8.32812 0.25 7.70312 0.421875 7.125 0.765625C6.54688 1.09375 6.08594 1.54688 5.74219 2.125C5.41406 2.70312 5.25 3.32813 5.25 4V4.75H1.54688L1.5 5.45312L0.703125 19.75H17.2969L16.5 5.45312L16.4531 4.75H12.75V4C12.75 3.32813 12.5781 2.70312 12.2344 2.125C11.9062 1.54688 11.4531 1.09375 10.875 0.765625C10.2969 0.421875 9.67188 0.25 9 0.25ZM9 1.75C9.625 1.75 10.1562 1.96875 10.5938 2.40625C11.0312 2.84375 11.25 3.375 11.25 4V4.75H6.75V4C6.75 3.375 6.96875 2.84375 7.40625 2.40625C7.84375 1.96875 8.375 1.75 9 1.75ZM2.95312 6.25H5.25V8.5H6.75V6.25H11.25V8.5H12.75V6.25H15.0469L15.7031 18.25H2.29688L2.95312 6.25Z" fill="#50585E"/>
</svg>
