<svg width="80" height="80" viewBox="0 0 80 80" fill="none" xmlns="http://www.w3.org/2000/svg">
<rect width="80" height="80" rx="40" fill="#637381"/>
<path fill-rule="evenodd" clip-rule="evenodd" d="M45.5 17L50.4967 30.5033L64 35.5L50.4967 40.4967L45.5 54L40.5033 40.4967L27 35.5L40.5033 30.5033L45.5 17ZM42.5956 32.5956L34.7466 35.5L42.5956 38.4044L45.5 46.2534L48.4044 38.4044L56.2534 35.5L48.4044 32.5956L45.5 24.7466L42.5956 32.5956Z" fill="#F7F8F9"/>
<path fill-rule="evenodd" clip-rule="evenodd" d="M26 45L28.4308 51.5692L35 54L28.4308 56.4308L26 63L23.5692 56.4308L17 54L23.5692 51.5692L26 45ZM24.5871 52.5871L20.7686 54L24.5871 55.4129L26 59.2314L27.4129 55.4129L31.2314 54L27.4129 52.5871L26 48.7686L24.5871 52.5871Z" fill="#F7F8F9"/>
</svg>
