<svg width="14" height="14" viewBox="0 0 14 14" fill="none" xmlns="http://www.w3.org/2000/svg">
<path fill-rule="evenodd" clip-rule="evenodd" d="M0.0761719 0.840054C0.0761719 0.475546 0.371664 0.180054 0.736172 0.180054C1.10068 0.180054 1.39617 0.475546 1.39617 0.840054V2.2302C3.4198 0.159048 6.58716 -0.432376 9.26057 0.871532C12.6453 2.52236 14.0508 6.60444 12.4 9.98913C10.7492 13.3738 6.6671 14.7794 3.28241 13.1286C1.93063 12.4693 0.848454 11.3969 0.178754 10.0621C0.0152861 9.73635 0.14688 9.33972 0.472678 9.17625C0.798476 9.01278 1.1951 9.14437 1.35857 9.47017C1.89873 10.5467 2.76999 11.41 3.86106 11.9422C6.59051 13.2734 9.88236 12.1399 11.2136 9.41048C12.5448 6.68103 11.4114 3.38918 8.68192 2.05794C6.2886 0.890643 3.43172 1.61412 1.87184 3.70005H4.25617C4.62068 3.70005 4.91617 3.99555 4.91617 4.36005C4.91617 4.72456 4.62068 5.02005 4.25617 5.02005H0.736172C0.371664 5.02005 0.0761719 4.72456 0.0761719 4.36005V4.31048C0.0760236 4.29991 0.0761719 0.840054 0.0761719 0.840054Z" fill="#5C6AC4"/>
</svg>
