<svg width="24" height="24" viewBox="0 0 24 24" fill="none" xmlns="http://www.w3.org/2000/svg">
<path d="M16 8.00004H14.6667C14.6667 6.52671 13.4733 5.33337 12 5.33337C10.5267 5.33337 9.33334 6.52671 9.33334 8.00004H8.00001C7.26667 8.00004 6.66667 8.60004 6.66667 9.33337V17.3334C6.66667 18.0667 7.26667 18.6667 8.00001 18.6667H16C16.7333 18.6667 17.3333 18.0667 17.3333 17.3334V9.33337C17.3333 8.60004 16.7333 8.00004 16 8.00004ZM12 6.66671C12.7333 6.66671 13.3333 7.26671 13.3333 8.00004H10.6667C10.6667 7.26671 11.2667 6.66671 12 6.66671ZM16 17.3334H8.00001V9.33337H9.33334V10.6667C9.33334 11.0334 9.63334 11.3334 10 11.3334C10.3667 11.3334 10.6667 11.0334 10.6667 10.6667V9.33337H13.3333V10.6667C13.3333 11.0334 13.6333 11.3334 14 11.3334C14.3667 11.3334 14.6667 11.0334 14.6667 10.6667V9.33337H16V17.3334Z" fill="#637381"/>
<path fill-rule="evenodd" clip-rule="evenodd" d="M21.4396 19.4084C23.0791 17.3199 23.9795 14.7467 23.9997 12.0918C24.0198 9.43697 23.1586 6.8504 21.551 4.73731C20.365 3.17723 18.8148 1.93136 17.0359 1.10862C15.2571 0.285889 13.3038 -0.0886722 11.3467 0.0176858C9.38966 0.124044 7.48845 0.708083 5.80929 1.71875C4.13012 2.72941 2.72413 4.13593 1.71421 5.81536V2.9C1.71421 2.62386 1.49035 2.4 1.21421 2.4H0.0542451C0.0242864 2.4 0 2.42429 0 2.45424V7.10657C0 7.49463 0.154176 7.8668 0.428604 8.14118C0.70297 8.4155 1.07506 8.5696 1.46304 8.5696H5.94748C5.97648 8.5696 6 8.54609 6 8.51708V7.3557C6 7.07956 5.77614 6.8557 5.5 6.8557H3.10443C4.24958 4.87633 6.02111 3.33437 8.13969 2.47298C10.2583 1.61158 12.6033 1.47975 14.8051 2.09827C17.0069 2.7168 18.9402 4.05049 20.3 5.88904C21.6599 7.72759 22.369 9.96639 22.3155 12.2524C22.262 14.5385 21.449 16.7417 20.0046 18.5146C18.5602 20.2876 16.5667 21.5294 14.3384 22.0443C12.1101 22.5592 9.77372 22.3178 7.69775 21.3583C5.62179 20.3988 3.92432 18.7757 2.87301 16.7449L1.35251 17.5368C2.27839 19.3174 3.63624 20.8373 5.30172 21.9574C6.9672 23.0775 8.88711 23.762 10.8857 23.9482C12.8842 24.1345 14.8976 23.8164 16.7414 23.0233C18.5852 22.2302 20.2006 20.9872 21.4396 19.4084Z" fill="#637381"/>
</svg>
