<svg width="9" height="6" viewBox="0 0 9 6" fill="none" xmlns="http://www.w3.org/2000/svg">
<path fill-rule="evenodd" clip-rule="evenodd" d="M8.59996 1.13595C8.28793 0.825776 7.78399 0.825776 7.47196 1.13595L4.59996 3.96796L1.76796 1.13595C1.45593 0.825776 0.951989 0.825776 0.639959 1.13595C0.488509 1.28617 0.40332 1.49064 0.40332 1.70395C0.40332 1.91726 0.488509 2.12174 0.639959 2.27195L4.03196 5.66396C4.18217 5.81541 4.38665 5.90059 4.59996 5.90059C4.81327 5.90059 5.01775 5.81541 5.16796 5.66396L8.59996 2.27195C8.75141 2.12174 8.8366 1.91726 8.8366 1.70395C8.8366 1.49064 8.75141 1.28617 8.59996 1.13595Z" fill="#919EAB"/>
</svg>
