<svg width="16" height="16" viewBox="0 0 16 16" fill="none" xmlns="http://www.w3.org/2000/svg">
<path fill-rule="evenodd" clip-rule="evenodd" d="M6.23445 1.15229C5.99521 2.93144 5.39887 4.50298 4.4435 5.87254C4.74182 6.24801 4.92002 6.7232 4.92002 7.24002V14.28C4.92002 14.6198 4.843 14.9416 4.70546 15.2288C5.19543 15.4508 5.74625 15.5695 6.35407 15.5838C8.73508 15.6041 10.493 15.6041 11.6359 15.5839C13.4136 15.5523 14.1542 15.0302 14.5789 13.647C14.9944 12.2934 15.411 8.61861 15.2762 6.78908C15.1996 5.75021 14.7566 5.20797 13.9217 5.15632C13.6136 5.13725 13.2631 5.18227 12.7747 5.28867C12.5956 5.32767 12.0518 5.46 11.6935 5.5472C11.5394 5.58468 11.4197 5.61383 11.3778 5.62364C11.0628 5.69757 10.7784 5.75913 10.4948 5.81343C9.59625 5.98553 9.21632 5.91943 9.09929 5.72579C8.97753 5.52435 8.97129 5.225 9.04988 4.12804C9.08506 3.63693 9.10158 3.31583 9.10458 2.95457C9.12004 1.09348 8.18466 0.277294 6.53941 0.79092C6.37617 0.841881 6.25724 0.982807 6.23445 1.15229ZM0.52002 7.24002C0.52002 6.511 1.111 5.92001 1.84002 5.92001H2.72002C3.44904 5.92001 4.04002 6.511 4.04002 7.24002V14.28C4.04002 15.009 3.44904 15.6 2.72002 15.6H1.84002C1.111 15.6 0.52002 15.009 0.52002 14.28V7.24002Z" fill="#C4CDD5"/>
</svg>
