<svg width="16" height="16" viewBox="0 0 16 16" fill="none" xmlns="http://www.w3.org/2000/svg">
<path fill-rule="evenodd" clip-rule="evenodd" d="M0.400024 8.88002C0.400024 9.60904 0.991009 10.2 1.72002 10.2H2.60002C3.32904 10.2 3.92002 9.60904 3.92002 8.88002V1.84002C3.92002 1.111 3.32904 0.52002 2.60002 0.52002H1.72002C0.991009 0.52002 0.400024 1.111 0.400024 1.84002V8.88002ZM4.80003 8.88002C4.80003 9.39683 4.62182 9.87202 4.32351 10.2475C5.27888 11.6171 5.87522 13.1886 6.11446 14.9677C6.13725 15.1372 6.25617 15.2782 6.41941 15.3291C8.06467 15.8427 9.00004 15.0265 8.98458 13.1655C8.98158 12.8042 8.96507 12.4831 8.92988 11.992C8.85129 10.895 8.85754 10.5957 8.97929 10.3942C9.09633 10.2006 9.47626 10.1345 10.3748 10.3066C10.6584 10.3609 10.9428 10.4225 11.2579 10.4964C11.2997 10.5062 11.4195 10.5354 11.5735 10.5728C11.9319 10.66 12.4756 10.7924 12.6547 10.8314C13.1431 10.9378 13.4936 10.9828 13.8017 10.9637C14.6366 10.9121 15.0796 10.3698 15.1562 9.33095C15.291 7.50142 14.8744 3.82658 14.4589 2.473C14.0342 1.08981 13.2936 0.567707 11.5159 0.536173C10.373 0.515899 8.61509 0.515899 6.23407 0.536225C5.62626 0.550485 5.07543 0.669216 4.58547 0.891198C4.723 1.17848 4.80003 1.50025 4.80003 1.84002V8.88002Z" fill="#CFA09D"/>
</svg>
