<svg width="16" height="18" viewBox="0 0 16 18" fill="none" xmlns="http://www.w3.org/2000/svg">
<path d="M8 0.75C7.04688 0.75 6.16406 0.984375 5.35156 1.45312C4.55469 1.92188 3.92188 2.5625 3.45312 3.375C2.98438 4.17188 2.75 5.04688 2.75 6C2.75 6.89062 2.95312 7.71875 3.35938 8.48438C3.78125 9.25 4.35156 9.875 5.07031 10.3594C4.17969 10.75 3.38281 11.2891 2.67969 11.9766C1.99219 12.6641 1.46094 13.4531 1.08594 14.3438C0.695312 15.2656 0.5 16.2344 0.5 17.25H2C2 16.1562 2.26562 15.1562 2.79688 14.25C3.34375 13.3281 4.07031 12.6016 4.97656 12.0703C5.89844 11.5234 6.90625 11.25 8 11.25C9.09375 11.25 10.0938 11.5234 11 12.0703C11.9219 12.6016 12.6484 13.3281 13.1797 14.25C13.7266 15.1562 14 16.1562 14 17.25H15.5C15.5 16.2344 15.3047 15.2656 14.9141 14.3438C14.5391 13.4531 14 12.6641 13.2969 11.9766C12.6094 11.2891 11.8203 10.75 10.9297 10.3594C11.6484 9.875 12.2109 9.25 12.6172 8.48438C13.0391 7.71875 13.25 6.89062 13.25 6C13.25 5.04688 13.0156 4.17188 12.5469 3.375C12.0781 2.5625 11.4375 1.92188 10.625 1.45312C9.82812 0.984375 8.95312 0.75 8 0.75ZM8 2.25C8.6875 2.25 9.3125 2.42188 9.875 2.76562C10.4531 3.09375 10.9062 3.54688 11.2344 4.125C11.5781 4.6875 11.75 5.3125 11.75 6C11.75 6.6875 11.5781 7.32031 11.2344 7.89844C10.9062 8.46094 10.4531 8.91406 9.875 9.25781C9.3125 9.58594 8.6875 9.75 8 9.75C7.3125 9.75 6.67969 9.58594 6.10156 9.25781C5.53906 8.91406 5.08594 8.46094 4.74219 7.89844C4.41406 7.32031 4.25 6.6875 4.25 6C4.25 5.3125 4.41406 4.6875 4.74219 4.125C5.08594 3.54688 5.53906 3.09375 6.10156 2.76562C6.67969 2.42188 7.3125 2.25 8 2.25Z" fill="#50585E"/>
</svg>
